HIERARCHY
ROOT SpineBase
{
  OFFSET 0.000000 0.000000 0.000000
  CHANNELS 6 Xposition Yposition Zposition Zrotation Xrotation Yrotation
  JOINT SpineMid
  {
    OFFSET 0.000000 30.495602 0.000000
    CHANNELS 3 Zrotation Xrotation Yrotation
    JOINT SpineShoulder
    {
      OFFSET -0.087398 22.652470 -0.758569
      CHANNELS 3 Zrotation Xrotation Yrotation
      JOINT Neck
      {
        OFFSET -0.066111 7.499658 -0.561254
        CHANNELS 3 Zrotation Xrotation Yrotation
        JOINT Head
        {
          OFFSET 2.480685 14.223557 -3.523705
          CHANNELS 3 Zrotation Xrotation Yrotation
          End Site
          {
            OFFSET 0 0 0
          }
        }
      }
      JOINT ShoulderLeft
      {
        OFFSET -16.364474 -3.270188 -2.419161
        CHANNELS 3 Zrotation Xrotation Yrotation
        JOINT ElbowLeft
        {
          OFFSET -5.081519 -22.260075 3.178120
          CHANNELS 3 Zrotation Xrotation Yrotation
          JOINT WristLeft
          {
            OFFSET -0.755038 -20.081124 -5.063265
            CHANNELS 3 Zrotation Xrotation Yrotation
            JOINT HandLeft
            {
              OFFSET 1.392046 -5.705237 -1.291475
              CHANNELS 3 Zrotation Xrotation Yrotation
              JOINT HandTipLeft
              {
                OFFSET -0.714641 -6.115507 -3.332862
                CHANNELS 3 Zrotation Xrotation Yrotation
                End Site
                {
                  OFFSET 0 0 0
                }
              }
              JOINT ThumbLeft
              {
                OFFSET 2.720727 0.666637 -2.749442
                CHANNELS 3 Zrotation Xrotation Yrotation
                End Site
                {
                  OFFSET 0 0 0
                }
              }
            }
          }
        }
      }
      JOINT ShoulderRight
      {
        OFFSET 16.852478 -5.283614 -0.784132
        CHANNELS 3 Zrotation Xrotation Yrotation
        JOINT ElbowRight
        {
          OFFSET 2.867025 -22.970275 0.587513
          CHANNELS 3 Zrotation Xrotation Yrotation
          JOINT WristRight
          {
            OFFSET 0.348747 -23.140487 -4.438155
            CHANNELS 3 Zrotation Xrotation Yrotation
            JOINT HandRight
            {
              OFFSET -1.015277 -6.341170 -0.322931
              CHANNELS 3 Zrotation Xrotation Yrotation
              JOINT HandTipRight
              {
                OFFSET -0.011201 -6.934008 -0.193508
                CHANNELS 3 Zrotation Xrotation Yrotation
                End Site
                {
                  OFFSET 0 0 0
                }
              }
              JOINT ThumbRight
              {
                OFFSET 2.373716 0.600802 -3.050333
                CHANNELS 3 Zrotation Xrotation Yrotation
                End Site
                {
                  OFFSET 0 0 0
                }
              }
            }
          }
        }
      }
    }
  }
  JOINT HipLeft
  {
    OFFSET -7.842494 1.394745 -3.346178
    CHANNELS 3 Zrotation Xrotation Yrotation
    JOINT KneeLeft
    {
      OFFSET -5.739693 -24.710256 -3.694956
      CHANNELS 3 Zrotation Xrotation Yrotation
      JOINT AnkleLeft
      {
        OFFSET -0.711710 -34.556226 16.397249
        CHANNELS 3 Zrotation Xrotation Yrotation
        JOINT FootLeft
        {
          OFFSET 0.269289 -3.602181 -12.417298
          CHANNELS 3 Zrotation Xrotation Yrotation
          End Site
          {
            OFFSET 0 0 0
          }
        }
      }
    }
  }
  JOINT HipRight
  {
    OFFSET 6.907269 0.320633 -3.187042
    CHANNELS 3 Zrotation Xrotation Yrotation
    JOINT KneeRight
    {
      OFFSET 0.918657 -23.547758 2.783382
      CHANNELS 3 Zrotation Xrotation Yrotation
      JOINT AnkleRight
      {
        OFFSET -2.916387 -31.156613 13.693317
        CHANNELS 3 Zrotation Xrotation Yrotation
        JOINT FootRight
        {
          OFFSET 0.097561 -3.649982 -12.416184
          CHANNELS 3 Zrotation Xrotation Yrotation
          End Site
          {
            OFFSET 0 0 0
          }
        }
      }
    }
  }
}
MOTION
Frames: 9
Frame Time: 0.033333
45.628840 64.594131 318.233365 -0.000000 0.000000 -0.618142 -0.000000 0.000000 0.618142 -0.000000 0.000000 0.000000 -0.000000 0.000000 0.000000 0.000000 0.000000 0.000000 -0.000000 0.000000 0.000000 -0.000000 0.000000 0.000000 -0.000000 0.000000 0.000000 -0.000000 0.000000 0.000000 0.000000 0.000000 0.000000 0.000000 0.000000 0.000000 -0.000000 0.000000 0.000000 -0.000000 0.000000 0.000000 -0.000000 0.000000 0.000000 -0.000000 0.000000 0.000000 0.000000 0.000000 0.000000 0.000000 0.000000 0.000000 -0.000000 0.000000 0.618142 -0.000000 0.000000 0.000000 -0.000000 0.000000 0.000000 0.000000 0.000000 0.000000 -0.000000 0.000000 0.618142 -0.000000 0.000000 0.000000 -0.000000 0.000000 0.000000 0.000000 0.000000 0.000000
45.594796 64.604387 318.173285 -0.018660 -0.056852 -0.651638 0.018012 0.057060 0.651620 -0.000000 0.000000 0.000000 -0.000000 0.000000 0.000000 0.000000 0.000000 0.000000 -0.000000 0.000000 0.000000 -0.000000 0.000000 0.000000 0.514114 -0.796784 -0.307365 -0.518431 0.793982 0.314532 0.000000 0.000000 0.000000 0.000000 0.000000 0.000000 -0.000000 0.000000 0.000000 -0.000000 0.000000 0.000000 -1.364324 0.555153 -0.012765 1.831959 1.096598 0.008042 0.000000 0.000000 0.000000 0.000000 0.000000 0.000000 0.018012 0.057060 0.651620 -0.000000 0.000000 0.000000 -0.000000 0.000000 0.000000 0.000000 0.000000 0.000000 0.018012 0.057060 0.651620 -0.000000 0.000000 0.000000 -0.000000 0.000000 0.000000 0.000000 0.000000 0.000000
45.563475 64.612492 318.117743 -0.035501 -0.110297 -0.674304 0.034200 0.110707 0.674237 -0.000000 0.000000 0.000000 -0.538102 0.668549 -0.246925 0.000000 0.000000 0.000000 -0.000000 0.000000 0.000000 -0.337146 -0.814180 0.113417 1.298000 -0.566255 -0.674639 -0.975570 1.368281 0.566001 0.000000 0.000000 0.000000 0.000000 0.000000 0.000000 -0.000000 0.000000 0.000000 -0.264470 -0.789304 0.037056 -2.144053 1.876281 -0.035762 3.353976 1.970863 0.035222 0.000000 0.000000 0.000000 0.000000 0.000000 0.000000 0.034200 0.110707 0.674237 -0.000000 0.000000 0.000000 -0.000000 0.000000 0.000000 0.000000 0.000000 0.000000 0.034200 0.110707 0.674237 -0.000000 0.000000 0.000000 -0.000000 0.000000 0.000000 0.000000 0.000000 0.000000
45.534876 64.618444 318.066740 -0.050525 -0.160340 -0.686130 0.048601 0.160933 0.685991 -0.000000 0.000000 0.000000 -0.780247 0.937121 -0.350655 0.000000 0.000000 0.000000 -0.810062 -0.387886 -0.029789 0.390615 -0.786008 0.173203 1.746156 -0.537150 -0.879462 -0.925433 0.624096 0.629630 0.000000 0.000000 0.000000 0.000000 0.000000 0.000000 -0.000000 0.000000 0.000000 -0.387228 -1.119067 0.053723 -2.777116 2.717411 -0.049559 4.590981 2.586791 0.079172 0.000000 0.000000 0.000000 0.000000 0.000000 0.000000 0.048601 0.160933 0.685991 -0.000000 0.000000 0.000000 -0.000000 0.000000 0.000000 0.000000 0.000000 0.000000 0.048601 0.160933 0.685991 -0.000000 0.000000 0.000000 -0.000000 0.000000 0.000000 0.000000 0.000000 0.000000
45.508998 64.622245 318.020275 -0.063734 -0.206985 -0.687103 0.061248 0.207735 0.686877 -0.000000 0.000000 0.000000 -1.004426 1.161188 -0.441619 0.000000 0.000000 0.000000 -1.004276 -0.464424 -0.041331 0.562056 -1.031491 0.199441 2.040278 -0.269416 -0.982579 -1.175823 -0.121717 0.797908 0.000000 0.000000 0.000000 0.000000 0.000000 0.000000 -0.000000 0.000000 0.000000 -0.503883 -1.404279 0.069469 -3.153453 3.497562 -0.073388 5.563519 2.914478 0.139276 0.000000 0.000000 0.000000 0.000000 0.000000 0.000000 0.061248 0.207735 0.686877 -0.000000 0.000000 0.000000 -0.000000 0.000000 0.000000 0.000000 0.000000 0.000000 0.061248 0.207735 0.686877 -0.000000 0.000000 0.000000 -0.000000 0.000000 0.000000 0.000000 0.000000 0.000000
45.485843 64.623894 317.978349 -0.075130 -0.250237 -0.677208 0.072168 0.251108 0.676886 -0.000000 0.000000 0.000000 -1.210616 1.340310 -0.520080 0.000000 0.000000 0.000000 -1.160528 -0.514575 -0.053283 0.755385 -1.261932 0.210063 2.171105 0.241352 -0.979145 -1.375323 -1.370901 0.931726 0.000000 0.000000 0.000000 0.000000 0.000000 0.000000 -0.862218 -0.408287 -0.076151 0.249265 -1.234884 0.158923 -3.293971 4.218615 -0.114144 6.288237 2.930975 0.216118 0.000000 0.000000 0.000000 0.000000 0.000000 0.000000 0.072168 0.251108 0.676886 -0.000000 0.000000 0.000000 -0.000000 0.000000 0.000000 0.000000 0.000000 0.000000 0.072168 0.251108 0.676886 -0.000000 0.000000 0.000000 -0.000000 0.000000 0.000000 0.000000 0.000000 0.000000
45.458798 64.623175 317.946784 -0.089151 -0.296193 -0.667879 0.085693 0.297212 0.667426 -0.000000 0.000000 0.000000 -1.435395 1.521282 -0.602559 0.000000 0.000000 0.000000 -1.247406 -0.545783 -0.059264 1.015887 -1.477796 0.180885 1.720586 0.843619 -0.799564 -1.000686 -5.346598 1.203621 0.000000 0.000000 0.000000 0.000000 0.000000 0.000000 -1.102828 -0.494743 -0.094825 0.465085 -1.351740 0.175684 -3.151031 5.222533 -0.216987 7.057630 1.720001 0.403391 0.000000 0.000000 0.000000 0.000000 0.000000 0.000000 0.085693 0.297212 0.667426 -0.000000 0.000000 0.000000 -0.000000 0.000000 0.000000 0.000000 0.000000 0.000000 0.085693 0.297212 0.667426 -0.000000 0.000000 0.000000 -0.000000 0.000000 0.000000 0.000000 0.000000 0.000000
45.440111 64.619142 317.910495 -0.097558 -0.340267 -0.637096 0.093770 0.341330 0.636527 -0.000000 0.000000 0.000000 -1.636143 1.606924 -0.663336 0.000000 0.000000 0.000000 -1.323914 -0.522509 -0.075536 1.274925 -1.694041 0.159644 1.594856 2.028844 -0.547549 -1.534446 -7.123382 1.305029 0.000000 0.000000 0.000000 0.000000 0.000000 0.000000 -1.330400 -0.576987 -0.112894 0.539112 -1.406556 0.216496 -2.826665 5.993672 -0.339033 7.377764 1.426399 0.550607 0.000000 0.000000 0.000000 0.000000 0.000000 0.000000 0.093770 0.341330 0.636527 -0.000000 0.000000 0.000000 -0.000000 0.000000 0.000000 0.000000 0.000000 0.000000 0.093770 0.341330 0.636527 -0.000000 0.000000 0.000000 -0.000000 0.000000 0.000000 0.000000 0.000000 0.000000
45.426066 64.617189 317.875892 -0.103903 -0.368238 -0.588913 0.100115 0.369286 0.588257 -0.000000 0.000000 0.000000 -1.801382 1.629944 -0.705515 0.000000 0.000000 0.000000 -1.372931 -0.484723 -0.090877 1.482285 -1.851620 0.141873 1.477126 3.115999 -0.300635 -1.800410 -9.202888 1.301426 0.000000 0.000000 0.000000 0.000000 0.000000 0.000000 -1.529890 -0.662557 -0.130875 0.430900 -1.359971 0.287922 -1.984157 6.783044 -0.564281 6.787405 0.513219 0.752681 0.000000 0.000000 0.000000 0.000000 0.000000 0.000000 0.100115 0.369286 0.588257 -0.000000 0.000000 0.000000 -0.000000 0.000000 0.000000 0.000000 0.000000 0.000000 0.100115 0.369286 0.588257 -0.000000 0.000000 0.000000 0.226085 -0.107556 -0.774158 0.000000 0.000000 0.000000
